<svg width="102" height="19" viewBox="0 0 102 19" fill="none" xmlns="http://www.w3.org/2000/svg">
<path d="M73.9508 7.0752H68.2914V9.29416H73.9508V7.0752Z" fill="white"/>
<path d="M8.55746 9.16148V14.728C8.55746 15.1171 8.24514 15.432 7.85999 15.432H6.67823C6.63988 15.432 6.60846 15.4007 6.60846 15.3616V9.79506C6.60846 9.40623 6.92058 9.09109 7.30593 9.09109H8.48769C8.52625 9.09109 8.55746 9.12278 8.55746 9.16148Z" fill="white"/>
<path d="M5.27245 0.738517V7.25378C5.27245 7.29248 5.24144 7.32418 5.20268 7.32418H4.01378C3.62822 7.32418 3.3161 7.00883 3.3161 6.6202V0.104939C3.3161 0.066035 3.34711 0.0347465 3.38587 0.0347465H4.57477C4.96033 0.0347465 5.27245 0.349684 5.27245 0.738517Z" fill="white"/>
<path d="M5.27245 12.4328V17.4407C5.27245 17.8293 4.96033 18.1445 4.57477 18.1445H3.38587C3.34731 18.1445 3.3161 18.1132 3.3161 18.0741V13.0664C3.3161 12.6776 3.62822 12.3624 4.01378 12.3624H5.20268C5.24144 12.3624 5.27245 12.3941 5.27245 12.4328Z" fill="white"/>
<path d="M1.95064 14.1552V17.4406C1.95064 17.8292 1.63852 18.1444 1.25337 18.1444H0.0697696C0.0314179 18.1444 0 18.1133 0 18.074V14.7886C0 14.3997 0.312324 14.0846 0.697677 14.0846H1.88087C1.91963 14.0846 1.95064 14.1163 1.95064 14.1552Z" fill="white"/>
<path d="M8.55746 3.45366V6.30744C8.55746 6.34634 8.52645 6.37804 8.48769 6.37804H7.30593C6.92058 6.37804 6.60846 6.0629 6.60846 5.67407V2.82009C6.60846 2.78139 6.63967 2.74969 6.67823 2.74969H7.85999C8.24494 2.74969 8.55746 3.06483 8.55746 3.45366Z" fill="white"/>
<path d="M1.95064 0.739498V4.02533C1.95064 4.06423 1.91963 4.09573 1.88087 4.09573H0.697677C0.312324 4.09573 0 3.78058 0 3.39216V0.10592C0 0.0670166 0.0312139 0.0357281 0.0697696 0.0357281H1.25337C1.63852 0.0357281 1.95064 0.350665 1.95064 0.739498Z" fill="white"/>
<path d="M17.9483 18.0767V13.3979C17.9483 12.95 17.7721 12.5202 17.4583 12.2034C16.8881 11.6281 16.318 11.0534 15.7478 10.4781C15.4338 10.1615 15.0083 9.98345 14.5644 9.98345H9.92792C9.88957 9.98345 9.85815 10.0149 9.85815 10.0539V14.7324C9.85815 15.1805 10.0344 15.6103 10.3484 15.9271C10.9185 16.5022 11.4883 17.0771 12.0585 17.6523C12.3724 17.969 12.798 18.1471 13.2419 18.1471H17.8786C17.9171 18.1471 17.9483 18.1154 17.9483 18.0767Z" fill="white"/>
<path d="M17.9483 0.0703965V4.74915C17.9483 5.19706 17.7721 5.62686 17.4583 5.94365C16.8881 6.51897 16.318 7.09368 15.7478 7.669C15.4338 7.98558 15.0083 8.16364 14.5644 8.16364H9.92792C9.88957 8.16364 9.85815 8.13214 9.85815 8.09324V3.41469C9.85815 2.96657 10.0344 2.53678 10.3484 2.21999C10.9185 1.64487 11.4883 1.06996 12.0585 0.494839C12.3724 0.17805 12.798 0 13.2419 0H17.8786C17.9171 0 17.9483 0.0316985 17.9483 0.0703965Z" fill="white"/>
<path d="M86.0868 0.426965V2.64593H81.3564C81.0482 2.64593 80.741 2.65869 80.436 2.70829C79.567 2.89993 78.9401 3.74182 78.8742 4.61664C78.8491 5.07546 78.8532 5.53572 78.8552 5.99351H78.8519V7.07561H84.8413V9.29457H78.855C78.8593 12.1216 78.8562 14.9467 78.8562 17.7727H76.5817C76.5849 15.0134 76.5817 12.2537 76.5849 9.49218V6.72198C76.6151 5.72159 76.4988 4.70515 76.6759 3.71424C76.9284 2.37833 77.8952 1.20833 79.1602 0.732431C79.7473 0.491186 80.3656 0.434169 80.9905 0.427788C81.0409 0.426759 81.09 0.426758 81.1414 0.426758H86.0868V0.426965Z" fill="white"/>
<path d="M57.0005 0.635067C56.9973 1.30467 56.9973 1.97509 57.0016 2.64572H55.77C55.4606 2.64572 55.1515 2.65848 54.8455 2.70809C53.9765 2.89972 53.3498 3.74161 53.2837 4.61644C53.2596 5.07525 53.2637 5.53551 53.2657 5.9933H53.2627V7.07561H57.0005V9.29437H53.2655C53.2698 12.1214 53.2668 14.9465 53.2668 17.7725H50.9922C50.9954 15.0132 50.9922 12.2535 50.9954 9.49197V6.72177C51.0256 5.72139 50.9085 4.70474 51.0854 3.71403C51.338 2.37813 52.3055 1.20813 53.5697 0.732431C54.2049 0.472249 54.8769 0.426758 55.553 0.426758H57.0007V0.435197H57.0018C57.0016 0.50189 57.0005 0.568375 57.0005 0.635067Z" fill="white"/>
<path d="M65.6466 17.5632V17.7715H64.1988C63.5227 17.7715 62.851 17.7261 62.2155 17.4659C60.9515 16.99 59.984 15.8202 59.7312 14.4845C59.5541 13.4938 59.6714 12.4769 59.6415 11.4765V8.70633C59.638 5.94478 59.6415 3.18528 59.638 0.425781H61.9126C61.9126 2.43437 61.9136 4.44276 61.9136 6.45115V7.07525H65.6464V9.29421H61.9136V11.1229H61.9085V12.205H61.9116C61.9095 12.663 61.9054 13.1231 61.9295 13.5821C61.9954 14.4567 62.6223 15.2986 63.4913 15.4902C63.7973 15.5398 64.1066 15.5526 64.4156 15.5526H65.6474C65.6433 16.223 65.6433 16.8936 65.6466 17.5632Z" fill="white"/>
<path d="M102 17.7733H99.0273L98.8533 17.4441L98.2054 16.2081C97.9802 15.7688 97.7475 15.3297 97.5147 14.8929C96.8619 13.6735 96.2014 12.4614 95.7022 11.1837C95.5859 10.8865 95.479 10.5861 95.3815 10.2803L95.2725 9.93034L95.1636 10.2803C95.0659 10.5859 94.9592 10.8863 94.8429 11.1837C94.3439 12.4614 93.6832 13.6735 93.0304 14.8929C92.7976 15.3297 92.5651 15.7688 92.3397 16.2081L91.6918 17.4441L91.5177 17.7733H88.5453L91.3554 12.8475C91.6028 12.4148 91.8503 11.9824 92.0987 11.5497V11.5487C92.1701 11.4229 92.2423 11.2957 92.3135 11.1668L92.3472 11.1077L92.9321 10.0849L93.018 9.93363C93.1689 9.64072 93.2538 9.3087 93.2538 8.95651C93.2538 8.59052 93.1616 8.24553 93.0002 7.94418L92.2003 6.53747L90.4706 3.49556L89.8586 2.42416L88.9078 0.754174L88.7203 0.42627H91.6532L91.8313 0.754174L92.7662 2.45915L93.0998 3.06515C93.54 3.88274 93.9729 4.70981 94.4288 5.52741C94.6144 5.86602 94.7821 6.21389 94.9384 6.56711C95.0169 6.74187 95.0914 6.91848 95.1646 7.09591L95.2725 7.36145L95.3805 7.09591C95.4537 6.91848 95.5284 6.74166 95.6069 6.56711C95.7632 6.21389 95.9306 5.86602 96.1163 5.52741C96.5722 4.70981 97.0051 3.88274 97.4453 3.06515L97.7789 2.45915L98.7138 0.754174L98.8921 0.42627H101.825L101.637 0.754174L100.687 2.42416L100.074 3.49556L98.3448 6.53747L97.5449 7.94418C97.3835 8.24553 97.2913 8.59052 97.2913 8.95651C97.2913 9.3087 97.3762 9.64072 97.5271 9.93363L97.613 10.0849L98.1979 11.1077L98.2315 11.1668C98.3029 11.2959 98.3749 11.4229 98.4463 11.5487V11.5497C98.6948 11.9824 98.9423 12.4148 99.1897 12.8475L102 17.7733Z" fill="white"/>
<path d="M40.2533 3.12297C41.9736 2.8278 43.8473 2.92537 45.4008 3.79525C46.6442 4.48667 47.4679 5.77317 47.8188 7.1381C48.1825 8.47482 48.157 9.87166 48.1342 11.2442C48.086 12.9208 47.6764 14.691 46.5246 15.9584C45.3779 17.227 43.6338 17.7798 41.9671 17.7696C40.3065 17.8146 38.5128 17.4231 37.3065 16.1957C36.1113 15.0053 35.6703 13.2684 35.5787 11.6225C35.515 9.66129 35.4781 7.57263 36.4469 5.80013C37.1982 4.35451 38.6768 3.39489 40.2533 3.12297ZM40.8992 4.9214C40.0664 5.06384 39.2808 5.52081 38.8067 6.23652C38.1125 7.28816 37.9575 8.59154 37.9457 9.82699C37.9381 11.0326 37.9114 12.2705 38.2982 13.4292C38.566 14.2832 39.1115 15.0877 39.9291 15.4851C40.945 15.9662 42.1401 16.0034 43.2117 15.7006C44.1129 15.4442 44.8504 14.7439 45.2151 13.8804C45.8151 12.4873 45.7327 10.9299 45.7186 9.44454C45.669 8.14507 45.4416 6.71345 44.4752 5.76679C43.5434 4.84833 42.1248 4.72009 40.8992 4.9214Z" fill="white"/>
<path d="M33.0152 14.967C32.6686 15.9912 31.8247 16.7792 30.8557 17.2018C29.5539 17.7864 28.0801 17.8718 26.6812 17.682C25.4246 17.5003 24.1535 16.9612 23.3402 15.9398C22.9552 15.4674 22.7102 14.9015 22.5578 14.3126L22.4976 14.0607L22.4069 13.6768H24.6341C24.902 14.7461 25.8971 15.4517 26.9326 15.6446C28.0662 15.8558 29.3477 15.7862 30.3165 15.0899C30.9003 14.6858 31.2314 13.9038 30.9897 13.2126C30.7463 12.502 30.0531 12.0947 29.3956 11.8415C28.0725 11.3442 26.7186 10.9278 25.3997 10.4165C24.371 10.0013 23.3807 9.25223 23.0509 8.13781C22.6982 6.90832 22.9138 5.46909 23.781 4.5039C24.5758 3.61199 25.7571 3.18282 26.9109 3.03255C28.4205 2.86459 30.0548 3.01197 31.3471 3.88412C32.1186 4.39707 32.6688 5.2019 32.915 6.09566L32.977 6.34761L33.0741 6.73933H30.8436C30.5845 5.92955 29.8669 5.36349 29.0674 5.15683C27.9987 4.87544 26.7681 4.90035 25.8173 5.52363C25.2459 5.89209 24.9287 6.6395 25.1519 7.30168C25.3383 7.89224 25.9005 8.24341 26.4411 8.45954C27.6166 8.89489 28.8006 9.3004 29.9776 9.73266C30.9342 10.0855 31.8816 10.5906 32.5209 11.4127C33.2957 12.4012 33.4077 13.7982 33.0152 14.967Z" fill="white"/>
</svg>
